<mxfile host="Electron" agent="Mozilla/5.0 (Windows NT 10.0; Win64; x64) AppleWebKit/537.36 (KHTML, like Gecko) draw.io/24.7.8 Chrome/128.0.6613.36 Electron/32.0.1 Safari/537.36" version="24.7.8" pages="2">
  <diagram id="W0ylkn8RcfG1i17DHH_E" name="Entreprise">
    <mxGraphModel dx="954" dy="567" grid="1" gridSize="10" guides="1" tooltips="1" connect="1" arrows="1" fold="1" page="1" pageScale="1" pageWidth="827" pageHeight="1169" math="0" shadow="0">
      <root>
        <mxCell id="0" />
        <mxCell id="1" parent="0" />
        <mxCell id="syoAUEpTb2Gf-71qLyN1-1" value="Entreprise:MB" style="swimlane;fontStyle=1;align=center;verticalAlign=top;childLayout=stackLayout;horizontal=1;startSize=26;horizontalStack=0;resizeParent=1;resizeParentMax=0;resizeLast=0;collapsible=1;marginBottom=0;whiteSpace=wrap;html=1;" vertex="1" parent="1">
          <mxGeometry x="40" y="40" width="160" height="328" as="geometry" />
        </mxCell>
        <mxCell id="syoAUEpTb2Gf-71qLyN1-7" value="- nom: string" style="text;strokeColor=none;fillColor=none;align=left;verticalAlign=top;spacingLeft=4;spacingRight=4;overflow=hidden;rotatable=0;points=[[0,0.5],[1,0.5]];portConstraint=eastwest;whiteSpace=wrap;html=1;" vertex="1" parent="syoAUEpTb2Gf-71qLyN1-1">
          <mxGeometry y="26" width="160" height="26" as="geometry" />
        </mxCell>
        <mxCell id="syoAUEpTb2Gf-71qLyN1-2" value="- argent: int" style="text;strokeColor=none;fillColor=none;align=left;verticalAlign=top;spacingLeft=4;spacingRight=4;overflow=hidden;rotatable=0;points=[[0,0.5],[1,0.5]];portConstraint=eastwest;whiteSpace=wrap;html=1;" vertex="1" parent="syoAUEpTb2Gf-71qLyN1-1">
          <mxGeometry y="52" width="160" height="26" as="geometry" />
        </mxCell>
        <mxCell id="syoAUEpTb2Gf-71qLyN1-8" value="- batiment: int" style="text;strokeColor=none;fillColor=none;align=left;verticalAlign=top;spacingLeft=4;spacingRight=4;overflow=hidden;rotatable=0;points=[[0,0.5],[1,0.5]];portConstraint=eastwest;whiteSpace=wrap;html=1;" vertex="1" parent="syoAUEpTb2Gf-71qLyN1-1">
          <mxGeometry y="78" width="160" height="26" as="geometry" />
        </mxCell>
        <mxCell id="syoAUEpTb2Gf-71qLyN1-13" value="- reputation: int" style="text;strokeColor=none;fillColor=none;align=left;verticalAlign=top;spacingLeft=4;spacingRight=4;overflow=hidden;rotatable=0;points=[[0,0.5],[1,0.5]];portConstraint=eastwest;whiteSpace=wrap;html=1;" vertex="1" parent="syoAUEpTb2Gf-71qLyN1-1">
          <mxGeometry y="104" width="160" height="26" as="geometry" />
        </mxCell>
        <mxCell id="syoAUEpTb2Gf-71qLyN1-3" value="" style="line;strokeWidth=1;fillColor=none;align=left;verticalAlign=middle;spacingTop=-1;spacingLeft=3;spacingRight=3;rotatable=0;labelPosition=right;points=[];portConstraint=eastwest;strokeColor=inherit;" vertex="1" parent="syoAUEpTb2Gf-71qLyN1-1">
          <mxGeometry y="130" width="160" height="8" as="geometry" />
        </mxCell>
        <mxCell id="syoAUEpTb2Gf-71qLyN1-9" value="+ Nom: string {get}" style="text;strokeColor=none;fillColor=none;align=left;verticalAlign=top;spacingLeft=4;spacingRight=4;overflow=hidden;rotatable=0;points=[[0,0.5],[1,0.5]];portConstraint=eastwest;whiteSpace=wrap;html=1;" vertex="1" parent="syoAUEpTb2Gf-71qLyN1-1">
          <mxGeometry y="138" width="160" height="26" as="geometry" />
        </mxCell>
        <mxCell id="syoAUEpTb2Gf-71qLyN1-10" value="+ Argent: int {get}" style="text;strokeColor=none;fillColor=none;align=left;verticalAlign=top;spacingLeft=4;spacingRight=4;overflow=hidden;rotatable=0;points=[[0,0.5],[1,0.5]];portConstraint=eastwest;whiteSpace=wrap;html=1;" vertex="1" parent="syoAUEpTb2Gf-71qLyN1-1">
          <mxGeometry y="164" width="160" height="26" as="geometry" />
        </mxCell>
        <mxCell id="syoAUEpTb2Gf-71qLyN1-12" value="+ Batiment: int {get}" style="text;strokeColor=none;fillColor=none;align=left;verticalAlign=top;spacingLeft=4;spacingRight=4;overflow=hidden;rotatable=0;points=[[0,0.5],[1,0.5]];portConstraint=eastwest;whiteSpace=wrap;html=1;" vertex="1" parent="syoAUEpTb2Gf-71qLyN1-1">
          <mxGeometry y="190" width="160" height="26" as="geometry" />
        </mxCell>
        <mxCell id="syoAUEpTb2Gf-71qLyN1-11" value="+ Reputation: int {get}" style="text;strokeColor=none;fillColor=none;align=left;verticalAlign=top;spacingLeft=4;spacingRight=4;overflow=hidden;rotatable=0;points=[[0,0.5],[1,0.5]];portConstraint=eastwest;whiteSpace=wrap;html=1;" vertex="1" parent="syoAUEpTb2Gf-71qLyN1-1">
          <mxGeometry y="216" width="160" height="26" as="geometry" />
        </mxCell>
        <mxCell id="syoAUEpTb2Gf-71qLyN1-5" value="" style="line;strokeWidth=1;fillColor=none;align=left;verticalAlign=middle;spacingTop=-1;spacingLeft=3;spacingRight=3;rotatable=0;labelPosition=right;points=[];portConstraint=eastwest;strokeColor=inherit;" vertex="1" parent="syoAUEpTb2Gf-71qLyN1-1">
          <mxGeometry y="242" width="160" height="8" as="geometry" />
        </mxCell>
        <mxCell id="syoAUEpTb2Gf-71qLyN1-14" value="+ Transaction(int: montant)" style="text;strokeColor=none;fillColor=none;align=left;verticalAlign=top;spacingLeft=4;spacingRight=4;overflow=hidden;rotatable=0;points=[[0,0.5],[1,0.5]];portConstraint=eastwest;whiteSpace=wrap;html=1;" vertex="1" parent="syoAUEpTb2Gf-71qLyN1-1">
          <mxGeometry y="250" width="160" height="26" as="geometry" />
        </mxCell>
        <mxCell id="syoAUEpTb2Gf-71qLyN1-15" value="+ Upgrade()" style="text;strokeColor=none;fillColor=none;align=left;verticalAlign=top;spacingLeft=4;spacingRight=4;overflow=hidden;rotatable=0;points=[[0,0.5],[1,0.5]];portConstraint=eastwest;whiteSpace=wrap;html=1;" vertex="1" parent="syoAUEpTb2Gf-71qLyN1-1">
          <mxGeometry y="276" width="160" height="26" as="geometry" />
        </mxCell>
        <mxCell id="syoAUEpTb2Gf-71qLyN1-16" value="+ ChangReput(int: reput)" style="text;strokeColor=none;fillColor=none;align=left;verticalAlign=top;spacingLeft=4;spacingRight=4;overflow=hidden;rotatable=0;points=[[0,0.5],[1,0.5]];portConstraint=eastwest;whiteSpace=wrap;html=1;" vertex="1" parent="syoAUEpTb2Gf-71qLyN1-1">
          <mxGeometry y="302" width="160" height="26" as="geometry" />
        </mxCell>
      </root>
    </mxGraphModel>
  </diagram>
  <diagram id="C5RBs43oDa-KdzZeNtuy" name="VenteAgnion">
    <mxGraphModel dx="954" dy="567" grid="1" gridSize="10" guides="1" tooltips="1" connect="1" arrows="1" fold="1" page="1" pageScale="1" pageWidth="827" pageHeight="1169" math="0" shadow="0">
      <root>
        <mxCell id="WIyWlLk6GJQsqaUBKTNV-0" />
        <mxCell id="WIyWlLk6GJQsqaUBKTNV-1" parent="WIyWlLk6GJQsqaUBKTNV-0" />
        <mxCell id="gEy8JrtBsF5kMUMQi6bM-0" value="VenteAgnionSystem:MB" style="swimlane;fontStyle=1;align=center;verticalAlign=top;childLayout=stackLayout;horizontal=1;startSize=26;horizontalStack=0;resizeParent=1;resizeParentMax=0;resizeLast=0;collapsible=1;marginBottom=0;whiteSpace=wrap;html=1;" parent="WIyWlLk6GJQsqaUBKTNV-1" vertex="1">
          <mxGeometry y="40" width="360" height="356" as="geometry" />
        </mxCell>
        <mxCell id="gEy8JrtBsF5kMUMQi6bM-6" value="- sites: SiteVente[]" style="text;strokeColor=none;fillColor=none;align=left;verticalAlign=top;spacingLeft=4;spacingRight=4;overflow=hidden;rotatable=0;points=[[0,0.5],[1,0.5]];portConstraint=eastwest;whiteSpace=wrap;html=1;" parent="gEy8JrtBsF5kMUMQi6bM-0" vertex="1">
          <mxGeometry y="26" width="360" height="26" as="geometry" />
        </mxCell>
        <mxCell id="gEy8JrtBsF5kMUMQi6bM-1" value="- demandeGlobal: int" style="text;strokeColor=none;fillColor=none;align=left;verticalAlign=top;spacingLeft=4;spacingRight=4;overflow=hidden;rotatable=0;points=[[0,0.5],[1,0.5]];portConstraint=eastwest;whiteSpace=wrap;html=1;" parent="gEy8JrtBsF5kMUMQi6bM-0" vertex="1">
          <mxGeometry y="52" width="360" height="26" as="geometry" />
        </mxCell>
        <mxCell id="gEy8JrtBsF5kMUMQi6bM-10" value="- marketGlobalPrice: int" style="text;strokeColor=none;fillColor=none;align=left;verticalAlign=top;spacingLeft=4;spacingRight=4;overflow=hidden;rotatable=0;points=[[0,0.5],[1,0.5]];portConstraint=eastwest;whiteSpace=wrap;html=1;" parent="gEy8JrtBsF5kMUMQi6bM-0" vertex="1">
          <mxGeometry y="78" width="360" height="26" as="geometry" />
        </mxCell>
        <mxCell id="4FiIjHLXtfxkHFKBFXOF-17" value="- buyMultiplier: float" style="text;strokeColor=none;fillColor=none;align=left;verticalAlign=top;spacingLeft=4;spacingRight=4;overflow=hidden;rotatable=0;points=[[0,0.5],[1,0.5]];portConstraint=eastwest;whiteSpace=wrap;html=1;" vertex="1" parent="gEy8JrtBsF5kMUMQi6bM-0">
          <mxGeometry y="104" width="360" height="26" as="geometry" />
        </mxCell>
        <mxCell id="gEy8JrtBsF5kMUMQi6bM-2" value="" style="line;strokeWidth=1;fillColor=none;align=left;verticalAlign=middle;spacingTop=-1;spacingLeft=3;spacingRight=3;rotatable=0;labelPosition=right;points=[];portConstraint=eastwest;strokeColor=inherit;" parent="gEy8JrtBsF5kMUMQi6bM-0" vertex="1">
          <mxGeometry y="130" width="360" height="8" as="geometry" />
        </mxCell>
        <mxCell id="gEy8JrtBsF5kMUMQi6bM-3" value="+ Sites: SiteVente[] {get}" style="text;strokeColor=none;fillColor=none;align=left;verticalAlign=top;spacingLeft=4;spacingRight=4;overflow=hidden;rotatable=0;points=[[0,0.5],[1,0.5]];portConstraint=eastwest;whiteSpace=wrap;html=1;" parent="gEy8JrtBsF5kMUMQi6bM-0" vertex="1">
          <mxGeometry y="138" width="360" height="26" as="geometry" />
        </mxCell>
        <mxCell id="gEy8JrtBsF5kMUMQi6bM-11" value="+ DemandeGlobal: int {get}" style="text;strokeColor=none;fillColor=none;align=left;verticalAlign=top;spacingLeft=4;spacingRight=4;overflow=hidden;rotatable=0;points=[[0,0.5],[1,0.5]];portConstraint=eastwest;whiteSpace=wrap;html=1;" parent="gEy8JrtBsF5kMUMQi6bM-0" vertex="1">
          <mxGeometry y="164" width="360" height="26" as="geometry" />
        </mxCell>
        <mxCell id="gEy8JrtBsF5kMUMQi6bM-12" value="+ MarketGlobalPrice: int {get}" style="text;strokeColor=none;fillColor=none;align=left;verticalAlign=top;spacingLeft=4;spacingRight=4;overflow=hidden;rotatable=0;points=[[0,0.5],[1,0.5]];portConstraint=eastwest;whiteSpace=wrap;html=1;" parent="gEy8JrtBsF5kMUMQi6bM-0" vertex="1">
          <mxGeometry y="190" width="360" height="26" as="geometry" />
        </mxCell>
        <mxCell id="gEy8JrtBsF5kMUMQi6bM-4" value="" style="line;strokeWidth=1;fillColor=none;align=left;verticalAlign=middle;spacingTop=-1;spacingLeft=3;spacingRight=3;rotatable=0;labelPosition=right;points=[];portConstraint=eastwest;strokeColor=inherit;" parent="gEy8JrtBsF5kMUMQi6bM-0" vertex="1">
          <mxGeometry y="216" width="360" height="8" as="geometry" />
        </mxCell>
        <mxCell id="LLBazNht_-Y8vOFy_2B9-0" value="+ FixedUpdate() //met a jour la demande et le prix" style="text;strokeColor=none;fillColor=none;align=left;verticalAlign=top;spacingLeft=4;spacingRight=4;overflow=hidden;rotatable=0;points=[[0,0.5],[1,0.5]];portConstraint=eastwest;whiteSpace=wrap;html=1;" parent="gEy8JrtBsF5kMUMQi6bM-0" vertex="1">
          <mxGeometry y="224" width="360" height="26" as="geometry" />
        </mxCell>
        <mxCell id="gEy8JrtBsF5kMUMQi6bM-5" value="+ CalcSellPrice(Agnion[] agnions, SiteVent site): float" style="text;strokeColor=none;fillColor=none;align=left;verticalAlign=top;spacingLeft=4;spacingRight=4;overflow=hidden;rotatable=0;points=[[0,0.5],[1,0.5]];portConstraint=eastwest;whiteSpace=wrap;html=1;" parent="gEy8JrtBsF5kMUMQi6bM-0" vertex="1">
          <mxGeometry y="250" width="360" height="26" as="geometry" />
        </mxCell>
        <mxCell id="gEy8JrtBsF5kMUMQi6bM-9" value="+ CalcBuyPrice(Agnion[] agnions, SiteVent site): float" style="text;strokeColor=none;fillColor=none;align=left;verticalAlign=top;spacingLeft=4;spacingRight=4;overflow=hidden;rotatable=0;points=[[0,0.5],[1,0.5]];portConstraint=eastwest;whiteSpace=wrap;html=1;" parent="gEy8JrtBsF5kMUMQi6bM-0" vertex="1">
          <mxGeometry y="276" width="360" height="26" as="geometry" />
        </mxCell>
        <mxCell id="gEy8JrtBsF5kMUMQi6bM-8" value="+ Buy(Agnion[] agnions, SiteVent site, Entreprise entreprise)" style="text;strokeColor=none;fillColor=none;align=left;verticalAlign=top;spacingLeft=4;spacingRight=4;overflow=hidden;rotatable=0;points=[[0,0.5],[1,0.5]];portConstraint=eastwest;whiteSpace=wrap;html=1;" parent="gEy8JrtBsF5kMUMQi6bM-0" vertex="1">
          <mxGeometry y="302" width="360" height="28" as="geometry" />
        </mxCell>
        <mxCell id="gEy8JrtBsF5kMUMQi6bM-7" value="+ Sell(Agnion[] agnions, SiteVent site, Entreprise entreprise)" style="text;strokeColor=none;fillColor=none;align=left;verticalAlign=top;spacingLeft=4;spacingRight=4;overflow=hidden;rotatable=0;points=[[0,0.5],[1,0.5]];portConstraint=eastwest;whiteSpace=wrap;html=1;" parent="gEy8JrtBsF5kMUMQi6bM-0" vertex="1">
          <mxGeometry y="330" width="360" height="26" as="geometry" />
        </mxCell>
        <mxCell id="gEy8JrtBsF5kMUMQi6bM-13" value="SiteVente:MB" style="swimlane;fontStyle=1;align=center;verticalAlign=top;childLayout=stackLayout;horizontal=1;startSize=26;horizontalStack=0;resizeParent=1;resizeParentMax=0;resizeLast=0;collapsible=1;marginBottom=0;whiteSpace=wrap;html=1;" parent="WIyWlLk6GJQsqaUBKTNV-1" vertex="1">
          <mxGeometry x="440" y="40" width="260" height="276" as="geometry" />
        </mxCell>
        <mxCell id="gEy8JrtBsF5kMUMQi6bM-20" value="- demande: int" style="text;strokeColor=none;fillColor=none;align=left;verticalAlign=top;spacingLeft=4;spacingRight=4;overflow=hidden;rotatable=0;points=[[0,0.5],[1,0.5]];portConstraint=eastwest;whiteSpace=wrap;html=1;" parent="gEy8JrtBsF5kMUMQi6bM-13" vertex="1">
          <mxGeometry y="26" width="260" height="26" as="geometry" />
        </mxCell>
        <mxCell id="gEy8JrtBsF5kMUMQi6bM-21" value="- ratio: float" style="text;strokeColor=none;fillColor=none;align=left;verticalAlign=top;spacingLeft=4;spacingRight=4;overflow=hidden;rotatable=0;points=[[0,0.5],[1,0.5]];portConstraint=eastwest;whiteSpace=wrap;html=1;" parent="gEy8JrtBsF5kMUMQi6bM-13" vertex="1">
          <mxGeometry y="52" width="260" height="26" as="geometry" />
        </mxCell>
        <mxCell id="4FiIjHLXtfxkHFKBFXOF-19" value="- celebrity: float" style="text;strokeColor=none;fillColor=none;align=left;verticalAlign=top;spacingLeft=4;spacingRight=4;overflow=hidden;rotatable=0;points=[[0,0.5],[1,0.5]];portConstraint=eastwest;whiteSpace=wrap;html=1;" vertex="1" parent="gEy8JrtBsF5kMUMQi6bM-13">
          <mxGeometry y="78" width="260" height="26" as="geometry" />
        </mxCell>
        <mxCell id="4FiIjHLXtfxkHFKBFXOF-10" value="- agnions: Agnion[]" style="text;strokeColor=none;fillColor=none;align=left;verticalAlign=top;spacingLeft=4;spacingRight=4;overflow=hidden;rotatable=0;points=[[0,0.5],[1,0.5]];portConstraint=eastwest;whiteSpace=wrap;html=1;" vertex="1" parent="gEy8JrtBsF5kMUMQi6bM-13">
          <mxGeometry y="104" width="260" height="26" as="geometry" />
        </mxCell>
        <mxCell id="4FiIjHLXtfxkHFKBFXOF-20" value="- venteSystem: VenteAgnionSystem" style="text;strokeColor=none;fillColor=none;align=left;verticalAlign=top;spacingLeft=4;spacingRight=4;overflow=hidden;rotatable=0;points=[[0,0.5],[1,0.5]];portConstraint=eastwest;whiteSpace=wrap;html=1;" vertex="1" parent="gEy8JrtBsF5kMUMQi6bM-13">
          <mxGeometry y="130" width="260" height="26" as="geometry" />
        </mxCell>
        <mxCell id="gEy8JrtBsF5kMUMQi6bM-15" value="" style="line;strokeWidth=1;fillColor=none;align=left;verticalAlign=middle;spacingTop=-1;spacingLeft=3;spacingRight=3;rotatable=0;labelPosition=right;points=[];portConstraint=eastwest;strokeColor=inherit;" parent="gEy8JrtBsF5kMUMQi6bM-13" vertex="1">
          <mxGeometry y="156" width="260" height="8" as="geometry" />
        </mxCell>
        <mxCell id="gEy8JrtBsF5kMUMQi6bM-22" value="+ Demande: int {get}" style="text;strokeColor=none;fillColor=none;align=left;verticalAlign=top;spacingLeft=4;spacingRight=4;overflow=hidden;rotatable=0;points=[[0,0.5],[1,0.5]];portConstraint=eastwest;whiteSpace=wrap;html=1;" parent="gEy8JrtBsF5kMUMQi6bM-13" vertex="1">
          <mxGeometry y="164" width="260" height="26" as="geometry" />
        </mxCell>
        <mxCell id="gEy8JrtBsF5kMUMQi6bM-23" value="+ Ratio: float {get}" style="text;strokeColor=none;fillColor=none;align=left;verticalAlign=top;spacingLeft=4;spacingRight=4;overflow=hidden;rotatable=0;points=[[0,0.5],[1,0.5]];portConstraint=eastwest;whiteSpace=wrap;html=1;" parent="gEy8JrtBsF5kMUMQi6bM-13" vertex="1">
          <mxGeometry y="190" width="260" height="26" as="geometry" />
        </mxCell>
        <mxCell id="4FiIjHLXtfxkHFKBFXOF-11" value="+ Agnions: Agnion[] {get}" style="text;strokeColor=none;fillColor=none;align=left;verticalAlign=top;spacingLeft=4;spacingRight=4;overflow=hidden;rotatable=0;points=[[0,0.5],[1,0.5]];portConstraint=eastwest;whiteSpace=wrap;html=1;" vertex="1" parent="gEy8JrtBsF5kMUMQi6bM-13">
          <mxGeometry y="216" width="260" height="26" as="geometry" />
        </mxCell>
        <mxCell id="gEy8JrtBsF5kMUMQi6bM-17" value="" style="line;strokeWidth=1;fillColor=none;align=left;verticalAlign=middle;spacingTop=-1;spacingLeft=3;spacingRight=3;rotatable=0;labelPosition=right;points=[];portConstraint=eastwest;strokeColor=inherit;" parent="gEy8JrtBsF5kMUMQi6bM-13" vertex="1">
          <mxGeometry y="242" width="260" height="8" as="geometry" />
        </mxCell>
        <mxCell id="LLBazNht_-Y8vOFy_2B9-2" value="+ Init()" style="text;strokeColor=none;fillColor=none;align=left;verticalAlign=top;spacingLeft=4;spacingRight=4;overflow=hidden;rotatable=0;points=[[0,0.5],[1,0.5]];portConstraint=eastwest;whiteSpace=wrap;html=1;" parent="gEy8JrtBsF5kMUMQi6bM-13" vertex="1">
          <mxGeometry y="250" width="260" height="26" as="geometry" />
        </mxCell>
        <mxCell id="gEy8JrtBsF5kMUMQi6bM-24" value="MB = monobhevior class interne a unity" style="text;html=1;align=center;verticalAlign=middle;whiteSpace=wrap;rounded=0;" parent="WIyWlLk6GJQsqaUBKTNV-1" vertex="1">
          <mxGeometry width="820" height="30" as="geometry" />
        </mxCell>
        <mxCell id="4FiIjHLXtfxkHFKBFXOF-0" value="Agnion" style="swimlane;fontStyle=1;align=center;verticalAlign=top;childLayout=stackLayout;horizontal=1;startSize=26;horizontalStack=0;resizeParent=1;resizeParentMax=0;resizeLast=0;collapsible=1;marginBottom=0;whiteSpace=wrap;html=1;" vertex="1" parent="WIyWlLk6GJQsqaUBKTNV-1">
          <mxGeometry x="270" y="420" width="260" height="146" as="geometry" />
        </mxCell>
        <mxCell id="4FiIjHLXtfxkHFKBFXOF-1" value="- quality: float" style="text;strokeColor=none;fillColor=none;align=left;verticalAlign=top;spacingLeft=4;spacingRight=4;overflow=hidden;rotatable=0;points=[[0,0.5],[1,0.5]];portConstraint=eastwest;whiteSpace=wrap;html=1;" vertex="1" parent="4FiIjHLXtfxkHFKBFXOF-0">
          <mxGeometry y="26" width="260" height="26" as="geometry" />
        </mxCell>
        <mxCell id="4FiIjHLXtfxkHFKBFXOF-2" value="" style="line;strokeWidth=1;fillColor=none;align=left;verticalAlign=middle;spacingTop=-1;spacingLeft=3;spacingRight=3;rotatable=0;labelPosition=right;points=[];portConstraint=eastwest;strokeColor=inherit;" vertex="1" parent="4FiIjHLXtfxkHFKBFXOF-0">
          <mxGeometry y="52" width="260" height="8" as="geometry" />
        </mxCell>
        <mxCell id="4FiIjHLXtfxkHFKBFXOF-3" value="+ Quality: float {get}" style="text;strokeColor=none;fillColor=none;align=left;verticalAlign=top;spacingLeft=4;spacingRight=4;overflow=hidden;rotatable=0;points=[[0,0.5],[1,0.5]];portConstraint=eastwest;whiteSpace=wrap;html=1;" vertex="1" parent="4FiIjHLXtfxkHFKBFXOF-0">
          <mxGeometry y="60" width="260" height="26" as="geometry" />
        </mxCell>
        <mxCell id="4FiIjHLXtfxkHFKBFXOF-4" value="" style="line;strokeWidth=1;fillColor=none;align=left;verticalAlign=middle;spacingTop=-1;spacingLeft=3;spacingRight=3;rotatable=0;labelPosition=right;points=[];portConstraint=eastwest;strokeColor=inherit;" vertex="1" parent="4FiIjHLXtfxkHFKBFXOF-0">
          <mxGeometry y="86" width="260" height="8" as="geometry" />
        </mxCell>
        <mxCell id="4FiIjHLXtfxkHFKBFXOF-18" value="+ FixedUptade() //pour sup l&#39;agnion si dura&amp;lt;0" style="text;strokeColor=none;fillColor=none;align=left;verticalAlign=top;spacingLeft=4;spacingRight=4;overflow=hidden;rotatable=0;points=[[0,0.5],[1,0.5]];portConstraint=eastwest;whiteSpace=wrap;html=1;" vertex="1" parent="4FiIjHLXtfxkHFKBFXOF-0">
          <mxGeometry y="94" width="260" height="26" as="geometry" />
        </mxCell>
        <mxCell id="4FiIjHLXtfxkHFKBFXOF-5" value="+ Degrader()" style="text;strokeColor=none;fillColor=none;align=left;verticalAlign=top;spacingLeft=4;spacingRight=4;overflow=hidden;rotatable=0;points=[[0,0.5],[1,0.5]];portConstraint=eastwest;whiteSpace=wrap;html=1;" vertex="1" parent="4FiIjHLXtfxkHFKBFXOF-0">
          <mxGeometry y="120" width="260" height="26" as="geometry" />
        </mxCell>
        <mxCell id="4FiIjHLXtfxkHFKBFXOF-6" style="edgeStyle=orthogonalEdgeStyle;rounded=0;orthogonalLoop=1;jettySize=auto;html=1;endArrow=none;endFill=0;" edge="1" parent="WIyWlLk6GJQsqaUBKTNV-1" source="4FiIjHLXtfxkHFKBFXOF-0" target="gEy8JrtBsF5kMUMQi6bM-5">
          <mxGeometry relative="1" as="geometry" />
        </mxCell>
        <mxCell id="4FiIjHLXtfxkHFKBFXOF-7" style="edgeStyle=orthogonalEdgeStyle;rounded=0;orthogonalLoop=1;jettySize=auto;html=1;endArrow=none;endFill=0;" edge="1" parent="WIyWlLk6GJQsqaUBKTNV-1" source="4FiIjHLXtfxkHFKBFXOF-0" target="gEy8JrtBsF5kMUMQi6bM-9">
          <mxGeometry relative="1" as="geometry">
            <mxPoint x="570" y="313" as="sourcePoint" />
            <mxPoint x="530" y="287" as="targetPoint" />
          </mxGeometry>
        </mxCell>
        <mxCell id="4FiIjHLXtfxkHFKBFXOF-8" style="edgeStyle=orthogonalEdgeStyle;rounded=0;orthogonalLoop=1;jettySize=auto;html=1;endArrow=none;endFill=0;" edge="1" parent="WIyWlLk6GJQsqaUBKTNV-1" source="4FiIjHLXtfxkHFKBFXOF-0" target="gEy8JrtBsF5kMUMQi6bM-8">
          <mxGeometry relative="1" as="geometry">
            <mxPoint x="580" y="323" as="sourcePoint" />
            <mxPoint x="540" y="297" as="targetPoint" />
          </mxGeometry>
        </mxCell>
        <mxCell id="4FiIjHLXtfxkHFKBFXOF-9" style="edgeStyle=orthogonalEdgeStyle;rounded=0;orthogonalLoop=1;jettySize=auto;html=1;endArrow=none;endFill=0;" edge="1" parent="WIyWlLk6GJQsqaUBKTNV-1" source="4FiIjHLXtfxkHFKBFXOF-0" target="gEy8JrtBsF5kMUMQi6bM-7">
          <mxGeometry relative="1" as="geometry">
            <mxPoint x="590" y="333" as="sourcePoint" />
            <mxPoint x="550" y="307" as="targetPoint" />
          </mxGeometry>
        </mxCell>
        <mxCell id="4FiIjHLXtfxkHFKBFXOF-12" style="edgeStyle=orthogonalEdgeStyle;rounded=0;orthogonalLoop=1;jettySize=auto;html=1;endArrow=diamondThin;endFill=0;strokeWidth=1;endSize=12;entryX=0;entryY=0.5;entryDx=0;entryDy=0;" edge="1" parent="WIyWlLk6GJQsqaUBKTNV-1" source="4FiIjHLXtfxkHFKBFXOF-0" target="4FiIjHLXtfxkHFKBFXOF-10">
          <mxGeometry relative="1" as="geometry">
            <mxPoint x="670" y="360" as="sourcePoint" />
            <mxPoint x="530" y="367" as="targetPoint" />
            <Array as="points">
              <mxPoint x="400" y="563" />
              <mxPoint x="400" y="157" />
            </Array>
          </mxGeometry>
        </mxCell>
        <mxCell id="4FiIjHLXtfxkHFKBFXOF-21" style="edgeStyle=orthogonalEdgeStyle;rounded=0;orthogonalLoop=1;jettySize=auto;html=1;endArrow=none;endFill=0;exitX=0.002;exitY=0.045;exitDx=0;exitDy=0;exitPerimeter=0;entryX=0.997;entryY=0.037;entryDx=0;entryDy=0;entryPerimeter=0;" edge="1" parent="WIyWlLk6GJQsqaUBKTNV-1" source="gEy8JrtBsF5kMUMQi6bM-13" target="gEy8JrtBsF5kMUMQi6bM-0">
          <mxGeometry relative="1" as="geometry">
            <mxPoint x="410" y="430" as="sourcePoint" />
            <mxPoint x="370" y="313" as="targetPoint" />
            <Array as="points">
              <mxPoint x="400" y="52" />
            </Array>
          </mxGeometry>
        </mxCell>
      </root>
    </mxGraphModel>
  </diagram>
</mxfile>
